<svg xmlns="http://www.w3.org/2000/svg" viewBox="0 0 768 768"><path id="_" d="m485 91 27-5 34-1c9 0 27 3 35 5l7 3c28 11 42 21 62 44 7 8 20 24 24 34l8-4-7-7c-2-1-6-1-7-4 0-4 3-5 6-5h4c5 1 27-5 33-6 3-1 11-5 12 0 1 4-7 8-10 10l-35 23c5 5 12 21 15 29 11 30 13 57 13 89 0 17-4 41-12 56-11 20-26 34-41 51l-5 6-51 47-11 8c-18 16-37 31-57 45l-25 17-10 7c-6 3-18 10-22 14h112c3 0 10 0 8 5-1 3-6 2-8 2H465c-10 0-19 6-28 11l-27 12-23 8-17 5-10 4-22 4-20 2c-4 2-12 15-15 19l-37 47c-3 4-10 15-14 16-3 1-6-1-3-5l10-15 31-40c5-6 13-15 16-22-14 0-25 0-38-4-9-2-12-4-20-8-21-9-32-18-49-33l-23 30c4 0 10 0 13 2 6 5 0 23-5 27-4 4-10 3-15 3l-6-1c-10-2-5-14-2-20 6-12 14-23 23-34l10-13c-6-3-15-13-19-18-2-3-6-9-9-10-3 0-7 2-9 4l-18 15 4 4c2 5-2 18-6 22s-11 5-17 5h-6c-13-3-3-15 2-20 8-8 29-28 38-34l10-4c-4-8-6-16-7-25h-17l-16 1c-11 0-20 0-31 3-7 2-16 7-22 10l-12 6c-9 5-9 12-9 22 0 7 4 12 11 11 10-2 5-17 2-22l-2-6c1-2 3-3 5-2 3 1 5 7 6 9 2 6 3 19-1 24-4 6-20 5-24 0-4-4-4-12-4-17 0-6 0-12 3-17 4-8 16-12 24-16 26-13 37-12 65-12l7-1h14l-1-22c0-2 0-5 2-6 3-2 5 2 5 4l1 23c10 0 11 5 1 8 1 5 4 18 7 22 4 3 10-1 14-2 2 0 5-1 7 1 2 6-13 9-16 9l7 12 17 13c1-2 3-6 5-7 4-2 7 1 6 5 0 3-3 3-6 8l16 10a123 123 0 0 0 72 21l21-2c1-6 4-5 7-1l29-6a315 315 0 0 0 95-39l12-8c28-16 54-33 80-52l23-19 49-40 37-35c14-14 26-26 35-45 6-14 9-30 9-45l1-10-1-12c0-18-5-41-12-58-6-15-17-30-26-43-12-16-24-31-41-43-21-14-45-19-70-19a303 303 0 0 0-146 50l-9 6c-21 15-42 31-61 48l-15 15-44 43-17 20c-16 18-37 47-46 69l-6 19-6 23c-1 2-3 6-6 4-2-1-1-5-1-7l5-21c9-34 20-54 40-84l9-15 35-41 12-12 7-8a534 534 0 0 1 118-91c17-9 35-18 54-23 8-2 17-7 25-7h-4Zm-6 80 2-5c4-4 12-8 16-4 3 3 3 7 3 10 1 5 4 8 4 14-1 9-14 11-20 6-4-3-4-9-5-14-7-1-7-6 0-7Zm14-3-5 2 5-2Zm3 13-9 2c2 5 5 4 10 3l-1-5ZM137 547l-6 1c-5 1-13 11-16 16 15 0 19-2 22-17Zm47 46c-10 0-13-2-18 8-1 2-2 5-1 7s5 2 7 2c10 0 12-9 12-17Z"/></svg>
