<svg xmlns="http://www.w3.org/2000/svg" viewBox="0 0 6.92 7.04"><path d="M62.33 51.17c-.32 0-.62.06-.9.18-.28.11-.53.3-.74.53a2.6 2.6 0 0 0-.5.9 3.97 3.97 0 0 0-.16 1.5h-1.1a.57.57 0 0 0-.56.56v4.32h7.86v-4.32a.57.57 0 0 0-.57-.57h-1.09a4.87 4.87 0 0 0-.11-1.41 2.52 2.52 0 0 0-.4-.9 1.87 1.87 0 0 0-.72-.58 2.2 2.2 0 0 0-1.01-.21zm0 .19c.36 0 .67.06.93.19.26.12.47.3.64.52.17.23.3.51.37.83a4.42 4.42 0 0 1-.02 2.16l-.03.07-.01.05-.05.13a2 2 0 0 1-.76.93h1.05v.6h-1.79v-.55a1.91 1.91 0 0 0 .76-.9c.08-.2.13-.4.16-.63a4.88 4.88 0 0 0-.02-1.56 1.89 1.89 0 0 0-.23-.64c-.1-.18-.25-.32-.41-.41-.17-.1-.38-.16-.62-.16a1.11 1.11 0 0 0-1 .59c-.12.18-.2.4-.25.64a3.76 3.76 0 0 0-.07 1.05 3.43 3.43 0 0 0 .21 1.08 2.03 2.03 0 0 0 .75.92v.56h-1.79v-.6h1.04a1.99 1.99 0 0 1-.8-1l-.02-.08-.01-.04v-.01a2.33 2.33 0 0 1-.06-.23l-.02-.06a4.7 4.7 0 0 1 .1-1.98c.1-.33.26-.6.45-.83a2.03 2.03 0 0 1 1.5-.64zm-.03.82a1 1 0 0 1 .52.12c.14.09.25.2.34.36.1.15.17.34.21.57a3.9 3.9 0 0 1 .07 1.04h-2.27a5.32 5.32 0 0 1 .07-1.01c.05-.23.12-.42.21-.58.1-.16.21-.28.35-.37.14-.09.3-.13.5-.13z" transform="matrix(.881 0 0 .881 -51.42 -45.08)"/></svg>
