<svg xmlns="http://www.w3.org/2000/svg" viewBox="0 0 172 172"><style>path{@media (prefers-color-scheme: light){fill:black}@media (prefers-color-scheme: dark){fill:white}}</style><path d="M0 5c35 12 60 34 83 62 8 9 18 23 23 34l8-4-7-7c-3-3-11-4-8-10 1-4 7-2 14-3l39-9c3-1 11-4 14 0 4 4-6 11-9 13l-45 29 7 11c9 17 13 33 19 51h-21l-4-14A324 324 0 0 0 42 55C31 45 14 32 0 28V5Zm19 59c13-3 12 6 14 15l3 9c3 9 0 16-10 18-7 2-15 0-18-7L5 89c-1-4-5-5-5-9 1-3 4-4 5-5 6-7 5-9 14-11Zm8 26-10 2c3 6 9 6 10-2Z"/></svg>
